<?xml version="1.0" encoding="UTF-8" standalone="no"?>
<svg id="svg4467" xmlns:rdf="http://www.w3.org/1999/02/22-rdf-syntax-ns#" xmlns="http://www.w3.org/2000/svg" height="1088" viewBox="0 0 508 1088" width="508" version="1.1" xmlns:cc="http://creativecommons.org/ns#" xmlns:dc="http://purl.org/dc/elements/1.1/">
<path id="path4477" stroke="#ff49dd" fill="#ff49dd" d="m410.79 1086.9c-3.4234-1.9957-3.7325-7.2788-3.1807-54.36 0.70453-60.105 1.1669-63.317 10.978-76.281 11.236-14.846 25.229-56.913 29.208-87.802 0.49589-3.85 2.5-12.85 4.4536-20 3.9118-14.317 7.2856-30.732 8.2211-40 0.3331-3.3 1.8966-15 3.4744-26s3.3938-23.825 4.0357-28.5c0.64184-4.675 1.8854-13.45 2.7634-19.5 2.4019-16.549 2.1001-67.242-0.60116-101-1.4479-18.094-2.2562-39.227-2.6585-69.5-0.31791-23.925-0.62362-44.4-0.67934-45.5-0.80682-15.927 2.8909-54.999 7.2498-76.604 1.6546-8.2011 3.4595-19.97 4.011-26.153 0.55149-6.1832 1.6571-14.617 2.457-18.742 2.5611-13.208 4.5872-28.169 5.4942-40.57 0.48554-6.6383 1.8256-17.438 2.9779-24 2.5835-14.711 4.3927-39.391 3.6235-49.43-1.2543-16.371-3.638-39.961-4.8019-47.521-1.6749-10.88-1.3191-49.761 0.58493-63.921 0.81787-6.082 1.7364-15.333 2.0413-20.558 0.30484-5.225 1.2477-13.1 2.0952-17.5 9.62-49.954-9.89-102.77-38.04-102.93-26.63-0.15-36.96 23.018-37.9 84.96-0.54401 35.927-1.1583 42.543-6.2625 67.454-7.7625 37.884-7.4905 35.622-7.2802 60.546 0.43674 51.744 0.77012 46.488-3.8372 60.5-6.2802 19.1-11.436 45.551-15.69 80.5-4.02 33.023-6.8094 40.978-18.995 54.168-21.172 22.918-34.002 26.369-48.382 13.012-5.8416-5.4258-15.409-37.366-20.167-67.326-3.1477-19.82-8.1204-40.515-19.188-79.854-1.6373-5.8197-2.1046-11.89-2.7715-36-1.0288-37.193-4.4188-64.48-11.368-91.5-7.9211-30.801-11.289-50.292-13.132-76-0.84781-11.825-1.9974-23.3-2.5546-25.5s-1.6508-7.7502-2.4301-12.334c-4.28-25.195-14.62-41.795-32.63-52.416-13.36-7.8731-20.02-4.4412-40.31 20.771-4.1167 5.1145-9.7435 37.337-8.5528 48.979 1.0867 10.626 5.9262 42.159 7.5968 49.5 1.0516 4.6207 1.7298 17.198 2.3458 43.5 0.95293 40.691 2.3727 51.512 11.481 87.5 4.0164 15.87 5.9964 32.287 7.5376 62.5 0.98236 19.257 3.1643 41.986 4.4639 46.5 0.23752 0.825 0.90611 5.8901 1.4858 11.256 0.57964 5.3656 2.2331 13.17 3.6743 17.344 4.5125 13.067 2.0529 26.858-6.5345 36.638l-3.2018 3.6466 2.3029 1.5011c4.9637 3.2354 30.311 10.115 43.105 11.698 48.989 6.0649 75.712 24.484 100.71 69.416 12.083 21.718 25.027 39.979 38.987 55 9.8584 10.608 25.943 33.912 30.975 44.876 6.3427 13.821 6.1895 17.624-0.70985 17.624-4.5049 0-13.012-8.1845-17.67-17-5.1065-9.6642-13.903-21.601-34.269-46.5-7.9059-9.666-15.959-20.729-17.834-24.5-2.2275-4.4795-17.116-27.954-24.736-39-20.148-29.209-38.15-39.268-87.644-48.976-9.0141-1.768-18.346-4.0533-20.737-5.0784-2.3915-1.0251-8.0663-2.5632-12.611-3.4181-17.42-3.28-35.12-9.71-44.27-16.1-12.05-8.41-14-9.43-18-9.43-20.134 0-27.401 46.428-12.041 76.929 12.295 24.414 51.69 48.296 84.492 51.22 25.56 2.2782 27.974 3.1617 30.088 11.014 0.587 2.1799 2.1302 4.5467 3.6286 5.5651 8.682 5.901 9.9862 9.367 5.8276 15.487-7.5789 11.153 14.147 50.549 40.368 73.199 16.56 14.3 19.13 16.97 19.13 19.86 0 3.7247-2.9141 4.9949-9.5557 4.1651-9.8804-1.2345-7.1358 3.3697 11.712 19.647 13.671 11.807 15.872 15.019 13.553 19.782-2.7011 5.5458-19.468-1.3881-27.795-11.494-3.57-4.34-11.21-9.38-14.2-9.38-7.5658 0-32.197 33.205-43.766 59-15.009 33.466-18.646 58.413-13.035 89.42 7.2808 40.236 7.9595 46.977 4.9242 48.905-9.2456 5.8727-24.165-62.033-20.51-93.349 2.8479-24.398 25.223-72.009 44.517-94.728 21.013-24.742 20.019-22.372 15.271-36.418-6.8309-20.208-15.157-24.443-19.134-9.7318-3.2736 12.107-20.548 24.493-35.766 25.644-8.5487 0.64653-9.73 1.8003-8.0515 7.864 3.2733 11.825-5.9361 37.264-15.856 43.799-15.051 9.9149-42.823 5.9605-62.215-8.8585-4.0765-3.1152-8.8015-6.3732-10.5-7.2399-15.579-7.94-57.529-51.72-68.106-71.07-10.673-19.52-14.539-12.79-7.984 13.91 3.8989 15.879 4.289 21.443 1.8337 26.159-3.0723 5.9007-1.8047 27.79 3.1099 53.7 3.8719 20.414 5.4529 33.615 5.9281 49.5 0.5364 17.931 4.4838 35.474 15.638 69.5 4.6329 14.132 15.243 35.865 23.434 48 10.97 16.251 11.49 18.066 26.471 92.374 12.161 60.32 12.466 62.675 8.4638 65.298-7.5847 4.9697-7.7796 4.3969-21.416-62.942-14.102-69.61-12.399-63.53-21.478-76.7-24.035-34.87-39.783-84.3-41.101-129-0.639-21.67-0.95-24.06-4.336-33.35-6.157-16.87-11.9-68.55-12.519-112.65-0.27058-19.283-1.3484-30.904-4.5995-49.593-1.0614-6.1013-1.9353-13.976-1.9422-17.5-0.013-6.88-2.8882-18.56-8.2232-33.41-4.2184-11.74-4.7004-31.84-1.002-41.78 6.1212-16.45 30.811-38.15 50.238-44.15 17.234-5.3225 17.123-5.1684 16.329-22.668-1.2427-27.387 6.0228-40.195 33.171-58.474 29.052-19.562 41.128-17.942 74.217 9.9561 13.96 11.78 16.28 11.67 16.28-0.79 0-5.3339-0.57282-7.3398-3.9032-13.668-6.9752-13.254-9.6128-27.999-9.3765-52.417 0.15422-15.933-2.0892-51.313-3.6778-58-0.52265-2.2-2.553-9.8397-4.512-16.977-1.959-7.1375-4.2362-18.123-5.0606-24.411-0.82439-6.2888-2.17-14.024-2.9901-17.189-2.0753-8.0089-2.5218-15.933-2.8693-50.922-0.16659-16.775-0.81691-34.55-1.4452-39.5-0.62825-4.95-1.5984-13.275-2.156-18.5-0.55754-5.225-1.4607-13.325-2.007-18-4.378-37.465-3.4867-43.188 10.747-69 18.373-33.319 54.792-35.08 77.846-3.7639 9.104 12.367 18.229 53.499 20.358 91.764 0.5329 9.5778 1.5747 18.598 2.4834 21.5 1.5669 5.005 7.2581 31.637 10.578 49.5 0.97111 5.225 2.6769 14.225 3.7906 20s2.5136 15.9 3.1109 22.5c0.59728 6.6 1.5194 16.5 2.0492 22 0.52978 5.5 0.97928 15.463 0.99891 22.14 0.0416 14.145 1.6307 23.554 7.2388 42.86 2.2367 7.7 4.8736 17.825 5.8598 22.5 3.647 17.288 5.908 28.875 8.4888 43.5 11.99 67.947 31.535 87.041 50.855 49.681 2.9035-5.6148 12.176-45.295 14.064-60.181 0.38352-3.025 1.7578-8.9258 3.054-13.113 2.4291-7.8466 6.116-25.232 8.8831-41.887 0.86807-5.225 2.3365-12.894 3.2631-17.043 1.5324-6.8602 1.5637-9.4127 0.34604-28.207-1.7142-26.459-1.7531-26.094 8.9159-83.75 3.4278-18.524 5.0238-35.822 5.9975-65 1.7486-52.399 9.5893-79.42 26.559-91.529 19.24-13.73 25.13-13.864 44.44-1.0134 33.61 22.366 40.068 54.534 27.447 136.71-2.0306 13.221-1.439 60.246 0.96036 76.334 0.82024 5.5 1.7708 14.5 2.1123 20 0.34152 5.5 1.0917 15.461 1.667 22.135 1.2402 14.387 0.27587 24.724-5.5846 59.865-0.82552 4.95-1.8914 12.825-2.3687 17.5-0.47728 4.675-2.2512 16.6-3.9421 26.5-5.3699 31.441-7.2198 45.008-7.2419 53.113-0.0134 4.9287-1.1771 13.326-3.1023 22.387-3.6812 17.326-4.8681 42.454-2.9493 62.44 0.63678 6.6329 1.3386 30.735 1.5595 53.56 0.22096 22.825 0.9342 46.675 1.585 53 2.766 26.883 1.4102 73.172-2.6076 89.02-0.76967 3.036-2.1203 11.811-3.0014 19.5-0.88108 7.689-2.6564 18.93-3.9453 24.98-2.0354 9.5544-2.348 13.832-2.3791 32.55-0.0358 21.571-0.8077 30.088-3.575 39.45-1.5592 5.2749-5.8878 29.843-7.0474 40-0.37677 3.3-2.0523 10.5-3.7234 16s-4.2905 14.275-5.8208 19.5c-4.9192 16.796-10.499 28.967-17.004 37.087-9.451 11.799-9.8281 13.001-11.526 36.737-2.1133 29.536-3.3927 58.181-3.4248 76.677-0.0395 22.772-2.599 28.889-10.227 24.442zm-236.73-348.9c17.306-4.8077 14.418-44.374-3.9756-54.456-11.456-6.2795-40.49-33.326-63.14-58.815-12.674-14.27-16.385-20.17-19.828-31.57-9.544-31.6-11.067-40.12-13.174-73.66-1.841-29.3-3.644-31.49-23.174-28.12-5.095 0.88-10.839 1.83-12.764 2.12-6.827 1.01-21.028 14.93-23.862 23.4-4.3527 13 6.283 55.65 24.588 98.6 15.571 36.54 19.925 43.08 46.47 69.82 23.734 23.91 28.804 27.2 28.804 18.66 0-10.14 13.69-27.98 21.48-27.98 3.0471 0 2.7379 3.0348-0.84198 8.2638-5.0033 7.3081-6.7315 12.894-6.5609 21.205 0.0794 3.8673-0.16212 8.6185-0.53667 10.558-1.9405 10.05 31.897 26.035 46.515 21.974zm39.94-57.63c18.705-8.4609 22.601-31.111 10.081-58.597-4.236-9.2991-7.6588-14.859-18.638-30.278-1.9583-2.75-5.2988-7.925-7.4233-11.5-4.4434-7.4769-5.5502-8.285-16.471-12.025-42.261-14.475-47.687-17.296-62.458-32.478-27.193-27.95-32.392-79.085-10.428-102.57 15.648-16.729 27.554-19.435 41.484-9.4291 15.185 10.908 30.675 16.833 33.223 12.71 0.68611-1.1102-28.602-29.645-34.636-33.746-17.127-11.638-36.002-7.737-55.809 11.535-12.835 12.488-15.062 31.318-8.8706 75 1.0524 7.425 2.3257 20.107 2.8294 28.183 0.50377 8.0756 1.1381 15.051 1.4096 15.5 0.27149 0.44941 1.217 5.7671 2.1011 11.817 1.9238 13.164 10.397 43.162 14.472 51.234 6.7943 13.459 30.017 38.865 53.634 58.676 36.444 30.57 40.808 32.611 55.5 25.966zm-43.064-30.044c-6.4204-16.887 22.888-38.698 41.532-30.908 16.646 6.9552 8.391 14.232-14.16 12.481-6.3084-0.4897-10.639 2.9604-15.354 12.232-4.7624 9.3643-9.8214 11.972-12.018 6.1956z"/>
</svg>
